<svg id="Layer1" xmlns="http://www.w3.org/2000/svg" viewBox="0 0 140.17 45.49"><defs><style>.cls-1{fill:#fff;}</style></defs><path class="cls-1" d="M171.53,230.45l-1.64,5.42c1.92-.07,3.83-.12,5.81-.15q-3.39,12.08-5.81,18.45H177a99.47,99.47,0,0,1,5.05-18.42c1.9,0,3.81.08,5.75.14l1.65-5.42Z" transform="translate(-169.89 -229.43)"/><path class="cls-1" d="M205.4,258.48c-2,0-3.62-1.42-5-4.31h0a23.41,23.41,0,0,1-1.2-3,21.87,21.87,0,0,1-.62-2.54,44.52,44.52,0,0,1-.57-5.87c0-.75-.07-1.39-.07-1.89A31,31,0,0,1,200,229.44h-8.87q-5,11.59-12.37,24.78h7.7c.45-1.54,1-3.11,1.51-4.68h4.36a24.26,24.26,0,0,0,2,8.68c1.55,3.22,3.82,4.82,6.78,4.82q5.22,0,8.06-5.71C208.64,258.08,207.36,258.48,205.4,258.48Zm-13.18-13.79H190c.76-1.77,1.61-3.57,2.54-5.33C192.33,241.26,192.25,243,192.22,244.69Z" transform="translate(-169.89 -229.43)"/><path class="cls-1" d="M218.92,239.63c2.38-1.09,3.58-2.53,3.58-4.32a4.7,4.7,0,0,0-1.84-4,7.07,7.07,0,0,0-4.36-1.22,16,16,0,0,0-2.39.2,21.17,21.17,0,0,1-2.39.17h-6.4a109,109,0,0,1-6,20.64c-.39,1-.82,2.06-1.26,3.08h6.72a9.78,9.78,0,0,0,6.24,2.07,13.28,13.28,0,0,0,8.32-2.44,9.29,9.29,0,0,0,3.49-7.72C222.68,242.6,221.42,240.43,218.92,239.63Zm-6,8a3.17,3.17,0,0,1-2.69,1.24,5.36,5.36,0,0,1-2.79-.89l1.49-4.9a5,5,0,0,1,1.92-.45c1.95,0,2.92.7,2.92,2.11A4.88,4.88,0,0,1,212.94,247.65Zm2.63-10a2.27,2.27,0,0,1-1.66.83h-3.53l1.13-3.54a3.46,3.46,0,0,1,2.26-.87,3.33,3.33,0,0,1,1.66.42,1.5,1.5,0,0,1,.84,1.37,2.65,2.65,0,0,1-.7,1.79Z" transform="translate(-169.89 -229.43)"/><path class="cls-1" d="M243.69,237.79a3,3,0,0,0,2.41-1.13,4.09,4.09,0,0,0,.9-2.6c0-3.08-2.42-4.63-7.3-4.63-5.79,0-8.69,2-8.69,6.18a6.83,6.83,0,0,0,1.77,4.59l3.32,3a4.76,4.76,0,0,1,1.76,3.53c0,2-1.13,3-3.31,3s-3.39-.89-3.39-2.68a2.9,2.9,0,0,1,2.05-2.82,6.86,6.86,0,0,0-4-1.51,4.94,4.94,0,0,0-2.73.89,5.64,5.64,0,0,0-2.79,5.19,6,6,0,0,0,.7,2.81,2.16,2.16,0,0,0,.29.54,8.25,8.25,0,0,0,1.45,1.67,6.31,6.31,0,0,0,1.13.85,13.35,13.35,0,0,0,6.86,1.66A11.67,11.67,0,0,0,241.1,254a7.41,7.41,0,0,0,3.51-6.15,8,8,0,0,0-1.81-5.35l-3.39-3a4.51,4.51,0,0,1-1.82-3.39c0-1.78.8-2.65,2.42-2.65a2,2,0,0,1,1.24.42,1.28,1.28,0,0,1,.57,1.07,3.23,3.23,0,0,1-1.13,2A6.16,6.16,0,0,0,243.69,237.79Z" transform="translate(-169.89 -229.43)"/><path class="cls-1" d="M255.74,235.75c2.61,0,5.65,0,9.25.14l1.65-5.42H250q-1.64,6.27-5.32,18.35c-.43,1.42-1,3.22-1.9,5.37h16.66l1.6-5.37q-5.08.08-9.19.07H251c.32-1.36.67-2.76,1-4.11,2,0,4.12,0,6.35.18l1.65-5.37c-2.26.09-4.31.17-6.22.17h-.32c.48-1.35,1-2.69,1.47-4Z" transform="translate(-169.89 -229.43)"/><path class="cls-1" d="M274.56,235.75c2.61,0,5.65,0,9.26.14l1.62-5.42H268.79q-1.62,6.27-5.31,18.35c-.42,1.42-1.13,3.22-1.92,5.37h16.66l1.61-5.37c-3.39.05-6.47.07-9.2.07h-.85c.32-1.36.67-2.76,1.06-4.11,2,0,4.09,0,6.35.18l1.63-5.37c-2.26.09-4.28.17-6.23.17h-.25c.45-1.35.94-2.69,1.47-4Z" transform="translate(-169.89 -229.43)"/><path class="cls-1" d="M307.17,257.83a7.92,7.92,0,0,1-4.52-1.86q-2.26-1.65-5.21-8.3a8.8,8.8,0,0,0,5.36-3.38,9.33,9.33,0,0,0,2.26-6,11.54,11.54,0,0,0-.77-4c-1-2.61-3.54-3.93-7.55-3.93h-9a110,110,0,0,1-7.22,23.72h7.66l2-6.65q4,10.31,6.35,12.7a7.22,7.22,0,0,0,5.37,2.09q3.3,0,8.17-4.86A7.1,7.1,0,0,1,307.17,257.83Zm-13-15.49a6.9,6.9,0,0,1-2.26-.41l1.94-6.33c.47,0,.89-.07,1.26-.07,2,0,2.94.77,2.94,2.26a5,5,0,0,1-1,3.14A3.36,3.36,0,0,1,294.15,242.34Z" transform="translate(-169.89 -229.43)"/><path class="cls-1" d="M251.73,261.25c0-.1-.45-.13-1.07-.07a1.62,1.62,0,0,0-.44.07,32.72,32.72,0,0,0-6,2c-1,.4-1.82.75-1.88.75a6.24,6.24,0,0,1-1.13-2.26,2.73,2.73,0,0,1,.14-2.1c.28-.57.95-1.13,1.22-.92a1.4,1.4,0,0,1,.13.72c0,.62.27,1.13.62,1.13s.72-.64.82-1.19a1.78,1.78,0,0,0-1.32-2.15,1.84,1.84,0,0,0-.57-.05,2.29,2.29,0,0,0-.52.11,4.17,4.17,0,0,0-2.12,2,5.57,5.57,0,0,0,.5,4.71c.15.3.28.61.4.92a4.92,4.92,0,0,1-1.13.9c-3.94,2.67-4.16,5.48-.5,6.33a4.45,4.45,0,0,0,4.52-1.22,3.4,3.4,0,0,0,.64-2.6,4.55,4.55,0,0,0-.7-2.26l-.6-1.2,1.6-.78a34,34,0,0,1,5.82-2.25h.11C251.79,261.43,251.83,261.43,251.73,261.25Zm-9.83,9.19a3,3,0,0,1-1,.52,4.13,4.13,0,0,1-2.15,0c-1.84-.6-2-1.42-.47-3a15.39,15.39,0,0,1,1.8-1.52l1-.62.22.3a7.5,7.5,0,0,1,.65,1.13C242.4,268.19,242.65,269.76,241.9,270.44Z" transform="translate(-169.89 -229.43)"/><path class="cls-1" d="M266,262.49c-.33.23-.71.51-1.13.85-4.19,3.24-4.85,3.47-5.64,1.87-.51-1-.56-1.82-.29-4.31a15.76,15.76,0,0,0,.13-2.66c-.23-1.05-1.13-1.38-1.82-.67a35.84,35.84,0,0,0-4,6.2c-.7,1.34-1.32,2.44-1.34,2.44s.08-14.82.23-17.91c.06-1.26.12-2.36.19-3.58l.43-5.56a22.41,22.41,0,0,0,.14-2.95.79.79,0,0,0-1-.55.81.81,0,0,0-.52.47,31.83,31.83,0,0,0-.8,6.38c0,.39-.07.79-.1,1.22-.35,4.84-.42,12-.32,17.52a5,5,0,0,0,0,.55c.07,4,.3,7,.6,7.34a.53.53,0,0,0,.75,0,.22.22,0,0,0,.07-.09c0-.12.2-.56.32-1a51.17,51.17,0,0,1,3.39-6.84c.7-1.06,1.92-2.4,2-2.26a9.26,9.26,0,0,1-.14,1.57c-.41,3-.08,4.77,1.13,6a2.19,2.19,0,0,0,2.71.52,31.1,31.1,0,0,0,4.78-3.79,7.29,7.29,0,0,0,1.69-1.77C267.61,261.33,267.34,261.45,266,262.49Z" transform="translate(-169.89 -229.43)"/><path class="cls-1" d="M278.05,261.85a1.09,1.09,0,0,1-.25.1,16.89,16.89,0,0,1-4,1.34l-.81.13.11-.5a7.08,7.08,0,0,0-.17-3.39,3,3,0,0,0-2.85-1.94,4,4,0,0,0-1.78.45c-.93.44-1,.5-1.47,1.49a8,8,0,0,0-.83,3,4.35,4.35,0,0,0-.05.8v.5c.12,2.17.78,3.46,2.06,4.11a2,2,0,0,0,2.13,0,6.28,6.28,0,0,0,2-2.56c.45-1,.55-1.05,1-1.13a19.55,19.55,0,0,0,4.69-1.66,4.68,4.68,0,0,0,1.2-.83,2.59,2.59,0,0,0,.25-.39A10.47,10.47,0,0,0,278.05,261.85Zm-6.43,3a5.69,5.69,0,0,1-1.54,1.94,1.05,1.05,0,0,1-1.49-.12h0a3.52,3.52,0,0,1-.79-2.44v-.87l.6.33a5.25,5.25,0,0,0,2.63.67h.85Zm.78-1.92-.16.59h-.91a4.4,4.4,0,0,1-3.19-1c-.25-.29-.25-.36-.1-.95a7.68,7.68,0,0,1,.58-1.49,2.67,2.67,0,0,0,.35-1.13c-.11-.4.37-.65,1-.65a3.07,3.07,0,0,1,.67.08C272.4,258.74,273.09,260.63,272.4,262.89Z" transform="translate(-169.89 -229.43)"/><path class="cls-1" d="M295.7,261.13a58.74,58.74,0,0,0-6.36,1.76,12.67,12.67,0,0,1-1.4.44,8.33,8.33,0,0,1,.36-1c.73-1.71.68-3.09-.12-3.89a2.5,2.5,0,0,0-2.82,0,10.93,10.93,0,0,0-3.13,2.93,24.88,24.88,0,0,0-2.53,5.28c-.23.74-.43,1.35-.44,1.35s0-2.26,0-5v-5.32a.64.64,0,0,0-.75-.5.61.61,0,0,0-.47.42c-.15.47-.35,6.93-.49,15.12v2.21h1.56a16.58,16.58,0,0,1,.11-1.8c.78-7.52,3.68-13.22,7.15-14.05a.79.79,0,0,1,1,.52.73.73,0,0,1,0,.36c0,.72-.29,1.43-1.27,3.12a4.38,4.38,0,0,1-1.8,2,15.52,15.52,0,0,0-1.54,1.13,4.48,4.48,0,0,0-1.4,2c0,.69.85,1,1.64.58a12.55,12.55,0,0,0,2.91-2.77,4.34,4.34,0,0,1,1.9-1.57c1-.48,5.8-2.26,7.34-2.79C296.12,261.41,296.3,261.13,295.7,261.13Z" transform="translate(-169.89 -229.43)"/></svg>