<svg id="Layer_1" data-name="Layer 1" xmlns="http://www.w3.org/2000/svg" viewBox="0 0 172.31 79.13"><defs><style>.cls-1{fill:#1c4283;}.cls-2{fill:#fff;}</style></defs><rect class="cls-1" width="172.31" height="79.13"/><path class="cls-2" d="M22.4,70.28l-1.86,6.15c2.17-.08,4.35-.14,6.58-.17-2.51,9.13-4.72,16.11-6.58,20.94h8.1a113.36,113.36,0,0,1,5.74-20.94q3.23,0,6.52.17l1.87-6.15Z" transform="translate(-13.85 -60.44)"/><path class="cls-2" d="M60.82,102.08c-2.2,0-4.1-1.61-5.68-4.88,0,0,0,0,0-.06a25.43,25.43,0,0,1-1.35-3.45,24.23,24.23,0,0,1-.71-2.88,50,50,0,0,1-.65-6.66c0-.85-.08-1.59-.08-2.15a35.33,35.33,0,0,1,2.4-12.91H44.66q-5.71,13.14-14,28.11h8.73c.51-1.75,1.1-3.53,1.72-5.31h5a27.2,27.2,0,0,0,2.26,9.85C50,105.39,52.6,107.2,56,107.2q5.92,0,9.15-6.47Q64.16,102.08,60.82,102.08ZM45.88,86.43H43.25c.87-2,1.84-4,2.88-6C46,82.54,45.9,84.57,45.88,86.43Z" transform="translate(-13.85 -60.44)"/><path class="cls-2" d="M76.16,80.7q4.07-1.86,4.07-4.92a5.29,5.29,0,0,0-2.09-4.54,8,8,0,0,0-5-1.39,20.21,20.21,0,0,0-2.71.23,24.58,24.58,0,0,1-2.71.2H60.51a123.85,123.85,0,0,1-6.75,23.41c-.45,1.19-.93,2.35-1.44,3.51h7.62A11.18,11.18,0,0,0,67,99.54a15.09,15.09,0,0,0,9.44-2.77,10.5,10.5,0,0,0,4-8.75C80.42,84.06,79,81.6,76.16,80.7Zm-6.78,9.1a3.61,3.61,0,0,1-3,1.41,6.19,6.19,0,0,1-3.17-1l1.7-5.56A5.81,5.81,0,0,1,67,84.12c2.21,0,3.31.79,3.31,2.4A5.52,5.52,0,0,1,69.38,89.8Zm3-11.36a2.49,2.49,0,0,1-1.89.93h-4l1.24-4a3.93,3.93,0,0,1,2.6-1,3.66,3.66,0,0,1,1.89.48,1.69,1.69,0,0,1,1,1.56A3,3,0,0,1,72.37,78.44Z" transform="translate(-13.85 -60.44)"/><path class="cls-2" d="M104.27,78.61A3.43,3.43,0,0,0,107,77.28a4.58,4.58,0,0,0,1-2.94c0-3.5-2.74-5.25-8.27-5.25-6.59,0-9.86,2.32-9.86,7a7.56,7.56,0,0,0,2,5.19l3.76,3.36a5.45,5.45,0,0,1,2,4q0,3.39-3.76,3.39c-2.57,0-3.84-1-3.84-3.06a3.28,3.28,0,0,1,2.31-3.19,7.67,7.67,0,0,0-4.49-1.72,5.71,5.71,0,0,0-3.11,1A6.43,6.43,0,0,0,81.61,91a6.7,6.7,0,0,0,.79,3.19,2.94,2.94,0,0,0,.34.63,9.11,9.11,0,0,0,1.64,1.89,6.94,6.94,0,0,0,1.3,1,15.16,15.16,0,0,0,7.79,1.89,13.17,13.17,0,0,0,7.89-2.63c2.65-1.92,4-4.23,4-7a9.14,9.14,0,0,0-2.06-6.08l-3.85-3.41a5.21,5.21,0,0,1-2.06-3.87c0-2,.91-3,2.74-3a2.34,2.34,0,0,1,1.42.48,1.5,1.5,0,0,1,.65,1.22,3.67,3.67,0,0,1-1.28,2.26A7,7,0,0,0,104.27,78.61Z" transform="translate(-13.85 -60.44)"/><path class="cls-2" d="M117.94,76.26c3,0,6.47.06,10.51.17l1.86-6.15h-18.9q-1.86,7.11-6,20.82c-.48,1.61-1.19,3.64-2.15,6.1h18.9l1.81-6.1c-3.85.05-7.32.08-10.43.08h-1c.37-1.55.77-3.14,1.19-4.66,2.26,0,4.66.06,7.2.2l1.87-6.1c-2.52.11-4.89.19-7.07.19h-.31c.54-1.52,1.08-3,1.67-4.55Z" transform="translate(-13.85 -60.44)"/><path class="cls-2" d="M139.29,76.26q4.46,0,10.51.17l1.84-6.15h-18.9q-1.81,7.11-6,20.82c-.48,1.61-1.21,3.64-2.17,6.1h18.9l1.83-6.1c-3.87.05-7.34.08-10.45.08h-1c.37-1.55.76-3.14,1.21-4.66,2.24,0,4.64.06,7.21.2l1.83-6.1c-2.51.11-4.85.19-7.06.19h-.28c.51-1.52,1.07-3,1.67-4.55Z" transform="translate(-13.85 -60.44)"/><path class="cls-2" d="M176.3,101.35a9,9,0,0,1-5.2-2.12c-1.69-1.24-3.67-4.38-5.9-9.41A10,10,0,0,0,171.27,86a10.39,10.39,0,0,0,2.54-6.75,13.16,13.16,0,0,0-.87-4.52q-1.74-4.45-8.56-4.46H154.1a123.84,123.84,0,0,1-8.2,26.92h8.7l2.29-7.55q4.5,11.7,7.21,14.41a8.16,8.16,0,0,0,6.1,2.37c2.48,0,5.59-1.83,9.26-5.5A8.18,8.18,0,0,1,176.3,101.35ZM161.47,83.78a8,8,0,0,1-2.63-.48l2.2-7.18c.54-.05,1-.08,1.45-.08,2.23,0,3.33.87,3.33,2.6a5.72,5.72,0,0,1-1.1,3.56A3.83,3.83,0,0,1,161.47,83.78Z" transform="translate(-13.85 -60.44)"/><path class="cls-2" d="M83.64,115.45c0-.12-.5-.15-1.21-.09a1.83,1.83,0,0,0-.51.09,37.07,37.07,0,0,0-6.84,2.28c-1.1.46-2.06.85-2.14.85A7.19,7.19,0,0,1,71.67,116a3.05,3.05,0,0,1,.17-2.37c.31-.65,1.07-1.25,1.38-1a1.48,1.48,0,0,1,.14.82c0,.71.31,1.27.71,1.27s.82-.73.93-1.36a2,2,0,0,0-2.15-2.48,2.54,2.54,0,0,0-.59.11,4.76,4.76,0,0,0-2.4,2.26c-.65,1.36-.42,3.39.56,5.34a6.75,6.75,0,0,1,.46,1,6.11,6.11,0,0,1-1.28,1c-4.46,3-4.71,6.22-.56,7.18,2.12.45,4.18-.09,5.11-1.39a3.79,3.79,0,0,0,.74-2.93,5.3,5.3,0,0,0-.79-2.6l-.68-1.36,1.81-.87a37.72,37.72,0,0,1,6.61-2.57l.11,0C83.7,115.64,83.76,115.64,83.64,115.45ZM72.49,125.87a3.07,3.07,0,0,1-1.11.59,4.33,4.33,0,0,1-2.42,0c-2.1-.67-2.24-1.61-.54-3.44a17.08,17.08,0,0,1,2-1.73l1.1-.7.26.34a7.21,7.21,0,0,1,.73,1.24C73.05,123.33,73.33,125.11,72.49,125.87Z" transform="translate(-13.85 -60.44)"/><path class="cls-2" d="M99.8,116.86a15.74,15.74,0,0,0-1.27,1c-4.74,3.67-5.51,3.92-6.38,2.12-.57-1.19-.62-2.07-.31-4.89a20.31,20.31,0,0,0,.14-3c-.26-1.19-1.25-1.56-2.06-.77a40.47,40.47,0,0,0-4.5,7c-.79,1.52-1.49,2.77-1.52,2.77s.08-16.81.25-20.31c.09-1.44.14-2.69.23-4.07.14-1.75.28-3.67.48-6.3A28.76,28.76,0,0,0,85,87a.91.91,0,0,0-1.72-.09c-.29.57-.57,2.86-.91,7.23,0,.46-.08.91-.11,1.39-.4,5.51-.48,13.67-.37,19.89a4.16,4.16,0,0,0,0,.62c.08,4.52.34,7.91.68,8.33a.6.6,0,0,0,.93-.08c.06-.15.23-.65.37-1.13a55.53,55.53,0,0,1,3.87-7.77c.79-1.19,2.17-2.71,2.31-2.57a11.06,11.06,0,0,1-.17,1.78c-.45,3.41-.08,5.42,1.3,6.83a2.5,2.5,0,0,0,3.08.6,36.31,36.31,0,0,0,5.43-4.3,8.66,8.66,0,0,0,1.92-2C101.67,115.53,101.36,115.67,99.8,116.86Z" transform="translate(-13.85 -60.44)"/><path class="cls-2" d="M113.5,116.12a1,1,0,0,1-.28.12,19.37,19.37,0,0,1-4.58,1.52l-.9.14.11-.56a8,8,0,0,0-.19-3.87,3.4,3.4,0,0,0-3.22-2.21,4.72,4.72,0,0,0-2,.51c-1,.51-1.1.57-1.67,1.7a9.28,9.28,0,0,0-.93,3.39,5.43,5.43,0,0,0,0,.9v.57c.14,2.45.87,3.92,2.34,4.66a2.3,2.3,0,0,0,2.4,0,7.1,7.1,0,0,0,2.32-2.91c.51-1.1.62-1.19,1.1-1.27a21.77,21.77,0,0,0,5.31-1.9,4.49,4.49,0,0,0,1.36-.93,1.87,1.87,0,0,0,.28-.45A13.12,13.12,0,0,0,113.5,116.12Zm-7.29,3.36a6.31,6.31,0,0,1-1.75,2.21,1.19,1.19,0,0,1-1.69-.14,4,4,0,0,1-.91-2.77v-1l.68.37a5.91,5.91,0,0,0,3,.76h1Zm.91-2.2L107,118l-1,0a5,5,0,0,1-3.61-1.19c-.28-.31-.28-.39-.11-1.07a9.05,9.05,0,0,1,.64-1.69,2.63,2.63,0,0,0,.4-1.27c-.11-.46.42-.74,1.13-.74a3.29,3.29,0,0,1,.76.09C107.06,112.59,107.88,114.77,107.12,117.28Z" transform="translate(-13.85 -60.44)"/><path class="cls-2" d="M133.54,115.32a69.68,69.68,0,0,0-7.2,1.91,15.57,15.57,0,0,1-1.58.51,6,6,0,0,1,.41-1.11c.82-1.95.77-3.52-.15-4.43-.63-.64-1.9-.63-3.19,0a12.55,12.55,0,0,0-3.56,3.33,28.47,28.47,0,0,0-2.86,6c-.27.85-.5,1.55-.51,1.55s0-2.56,0-5.7,0-5.85,0-6a.72.72,0,0,0-1.39-.09c-.16.54-.4,7.87-.55,17.16,0,.89,0,1.71,0,2.5h1.77c0-1,.09-1.68.13-2,.89-8.54,4.18-15,8.11-15.95a.91.91,0,0,1,1.18,1c0,.82-.33,1.63-1.45,3.54a4.89,4.89,0,0,1-2,2.3c-.6.39-1.38,1-1.74,1.24a4.88,4.88,0,0,0-1.6,2.26c0,.79,1,1.12,1.86.65a14,14,0,0,0,3.34-3,5,5,0,0,1,2.16-1.78c1.16-.53,6.58-2.59,8.34-3.16C133.94,115.63,134.22,115.32,133.54,115.32Z" transform="translate(-13.85 -60.44)"/></svg>