<svg id="Layer_1" data-name="Layer 1" xmlns="http://www.w3.org/2000/svg" viewBox="0 0 192 192"><defs><style>.cls-1{fill:#184182;}.cls-2{fill:none;stroke:#184182;stroke-miterlimit:10;stroke-width:2px;}</style></defs><path class="cls-1" d="M118.56,86.63a4.81,4.81,0,0,0-6.82,0L95.23,103.14l-7-7A4.83,4.83,0,0,0,81.44,103l10.37,10.37a4.82,4.82,0,0,0,6.83,0l19.92-19.92A4.81,4.81,0,0,0,118.56,86.63Z" transform="translate(-4 -4)"/><path class="cls-1" d="M100,146.6l-.51-.32c-16-9.91-27.87-23-35.34-38.88a97.87,97.87,0,0,1-8.92-44.22L55.28,62l1.14.25c5,1.11,11.1,1.21,18.15.3,12-1.54,20.13-5.64,24.89-8.8l.54-.36.54.36c4.76,3.16,12.94,7.26,24.88,8.8h0c7.06.91,13.17.81,18.16-.3l1.14-.25.05,1.17a97.87,97.87,0,0,1-8.92,44.22c-7.47,15.89-19.35,29-35.33,38.88ZM57.16,64.41a95.7,95.7,0,0,0,8.77,42.16c7.21,15.36,18.68,28.05,34.07,37.73,15.39-9.68,26.86-22.37,34.07-37.73a95.7,95.7,0,0,0,8.77-42.16,57.56,57.56,0,0,1-17.67.09A60.28,60.28,0,0,1,100,55.74,60.28,60.28,0,0,1,74.83,64.5,57.55,57.55,0,0,1,57.16,64.41Z" transform="translate(-4 -4)"/><circle class="cls-2" cx="96" cy="96" r="95"/></svg>