<?xml version="1.0" encoding="UTF-8"?>
<svg id="Layer1" xmlns="http://www.w3.org/2000/svg" version="1.1" viewBox="0 0 450 450">
  <defs>
    <style>
      .cls-1 {
        fill: #000;
      }

      .cls-1, .cls-2, .cls-3, .cls-4, .cls-5, .cls-6, .cls-7, .cls-8 {
        stroke-width: 0px;
      }

      .cls-2 {
        fill: #1c4283;
      }

      .cls-3 {
        fill: none;
      }

      .cls-4 {
        fill: #194280;
      }

      .cls-5 {
        fill: #1b365e;
      }

      .cls-6 {
        fill: #333;
      }

      .cls-7 {
        fill: #fff;
      }

      .cls-8 {
        fill: #4d4d4d;
      }
    </style>
  </defs>
  <path class="cls-5" d="M354.3,117.8H78.4c-12.4,0-33,32.1-55.8,47l23.1,165.6c1.3,9.4,11,16.9,21.7,16.9h310.2c10.7,0,20.4-7.5,21.7-16.9l23.1-165.6c-21-9.7-55.6-47-68-47h-.1ZM181.8,148.3h12.9v12.9h-12.9v-12.9ZM181.5,172.6h12.9v12.9h-12.9v-12.9ZM158.1,148.3h12.9v12.9h-12.9v-12.9ZM157.8,172.6h12.9v12.9h-12.9v-12.9ZM134.2,148.3h12.9v12.9h-12.9v-12.9ZM133.9,172.6h12.9v12.9h-12.9v-12.9ZM110.5,148.3h12.9v12.9h-12.9v-12.9ZM110.2,172.6h12.9v12.9h-12.9v-12.9ZM86.6,148.3h12.9v12.9h-12.9v-12.9ZM86.3,172.6h13v12.9h-13v-12.9ZM62.9,148.3h12.9v12.9h-12.9v-12.9ZM62.6,172.6h12.9v12.9h-12.9v-12.9ZM62.2,186.8h12.9v12.9h-12.9v-12.9ZM63.5,210h12.9v12.9h-12.9v-12.9ZM64.8,233.1h12.9v12.9h-12.9v-12.9ZM66.1,256.2h12.9v12.9h-12.9v-12.9h0ZM67.4,292.3v-13h12.9v13h-12.9ZM81.6,315.4h-12.9v-13h12.9v13ZM85.9,187h12.9v12.9h-12.9v-12.9ZM86.9,210.1h12.9v12.9h-12.9v-12.9ZM88.1,233.2h12.9v12.9h-12.9v-12.9ZM89.2,256.4h12.9v12.9h-12.9v-12.9h0ZM90.2,279.5h12.9v13h-12.9v-13ZM104.3,315.6h-12.9v-13h12.9v13ZM109.6,187.1h12.9v12.9h-12.9v-12.9ZM110.5,210.2h12.9v12.9h-12.9v-12.9ZM111.4,233.4h12.9v12.9h-12.9v-12.9ZM112.2,256.5h12.9v12.9h-12.9v-12.9ZM113.2,279.7h12.9v13h-12.9v-13ZM127,315.7h-12.9v-13h12.9v13ZM133.4,187.1h12.9v12.9h-12.9v-12.9ZM134.1,210.2h12.9v12.9h-12.9v-12.9ZM134.7,233.4h12.9v12.9h-12.9v-12.9ZM135.4,256.5h12.9v12.9h-12.9v-12.9ZM136.1,279.7h12.9v13h-12.9v-13ZM149.7,315.8h-12.9v-13h12.9v13ZM157.1,187.2h12.9v12.9h-12.9v-12.9ZM157.5,210.4h12.9v12.9h-12.9v-12.9ZM158.1,233.5h12.9v12.9h-12.9v-12.9ZM158.5,256.7h12.9v12.9h-12.9v-12.9ZM159.1,279.8h12.9v13h-12.9v-13ZM172.4,316h-12.9v-13h12.9v13ZM180.8,187.4h12.9v12.9h-12.9v-12.9ZM181.1,210.5h12.9v12.9h-12.9v-12.9ZM181.4,233.7h12.9v12.9h-12.9v-12.9ZM181.7,256.8h12.9v12.9h-12.9v-12.9ZM182,280h12.9v13h-12.9v-13ZM195.1,316.1h-12.9v-13h12.9v13ZM204.5,187.5h12.9v12.9h-12.9v-12.9ZM204.7,210.7h12.9v12.9h-12.9v-12.9ZM204.7,233.8h12.9v12.9h-12.9v-12.9ZM204.8,257h12.9v12.9h-12.9v-12.9h0ZM205,280.1h12.9v13h-12.9v-13ZM218,316.1h-13v-13h13v13ZM218.1,186.4h-12.9v-12.9h12.9v12.9ZM218.4,162.1h-12.9v-12.9h12.9v12.9ZM240.7,316.1h-12.9v-13h12.9v13ZM240.8,293h-12.9v-13h12.9v13ZM240.8,269.8h-12.9v-12.9h12.9v12.9ZM241,246.7h-12.9v-12.9h12.9v12.9ZM241.1,223.5h-13v-12.9h13v12.9ZM241.1,200.4h-12.9v-12.9h12.9v12.9ZM242,186.2h-12.9v-12.9h12.9v12.9ZM242.3,161.9h-12.9v-12.9h12.9v12.9ZM263.4,315.3h-12.9v-13h12.9v13ZM263.7,292.1h-12.9v-13h12.9v13ZM264,269h-12.9v-12.9h12.9v12.9ZM264.3,245.8h-12.9v-12.9h12.9v12.9ZM264.6,222.7h-12.9v-12.9h12.9v12.9ZM264.9,199.5h-12.9v-12.9h12.9v12.9ZM265.7,185.4h-12.9v-12.9h12.9v12.9ZM266,161.1h-12.9v-12.9h12.9v12.9ZM286.1,315.1h-12.9v-13h12.9v13ZM286.7,292h-12.9v-13h12.9v13ZM287.1,268.8h-12.9v-12.9h12.9v12.9ZM287.7,245.7h-12.9v-12.9h12.9v12.9ZM288.1,222.5h-12.9v-12.9h12.9v12.9ZM288.6,199.4h-12.9v-12.9h12.9v12.9ZM289.6,185.2h-12.9v-12.9h12.9v12.9ZM289.9,160.9h-12.9v-12.9h12.9v12.9ZM308.8,315h-12.9v-13h12.9v13ZM309.6,291.8h-12.9v-13h12.9v13ZM310.3,268.7h-12.9v-12.9h12.9v12.9ZM311,245.5h-12.9v-12.9h12.9v12.9ZM311.7,222.4h-12.9v-12.9h12.9v12.9ZM312.3,199.2h-12.9v-12.9h12.9v12.9ZM313.3,185.1h-12.9v-12.9h12.9v12.9ZM313.6,160.8h-12.9v-12.9h12.9v12.9ZM331.5,314.8h-12.9v-13h12.9v13ZM332.6,291.7h-12.9v-13h12.9v13ZM333.4,268.5h-12.9v-12.9h12.9v12.9ZM334.3,245.4h-12.9v-12.9h12.9v12.9ZM335.2,222.2h-12.9v-12.9h12.9v12.9ZM336,199.1h-12.9v-12.9h12.9v12.9ZM337.2,184.8h-12.9v-12.9h12.9v12.9ZM337.5,160.6h-12.9v-12.9h12.9v12.9ZM354.4,314.7h-12.9v-13h12.9v13ZM355.4,291.5h-12.9v-13h12.9v13ZM356.6,268.4h-12.9v-12.9h12.9v12.9ZM357.6,245.2h-12.9v-12.9h12.9v12.9ZM358.7,222.1h-12.9v-12.9h12.9v12.9ZM359.8,199h-12.9v-12.9h12.9v12.9ZM360.9,184.6h-12.9v-12.9h12.9v12.9ZM361.2,161.2h-12.9v-12.9h12.9v12.9ZM377.1,315.3h-13v-13h13v13ZM378.4,292.1h-12.9v-13h12.9v13ZM379.7,269h-12.9v-12.9h12.9v12.9ZM381,245.8h-12.9v-12.9h12.9v12.9ZM382.3,222.7h-12.9v-12.9h12.9v12.9ZM383.6,199.5h-12.9v-12.9h12.9v12.9ZM384.8,185.4h-12.9v-12.9h12.9v12.9ZM385.1,161.1h-13v-12.9h12.9v12.9h.1Z"/>
  <rect class="cls-5" x="66.1" y="336.4" width="312.9" height="48.5"/>
  <path class="cls-4" d="M404.2,194.6H43.2c-10.6-.3-19.4,8-19.7,18.4,0,1.3,0,2.6.3,3.8l23.1,165.5c1.3,9.4,11,16.9,21.7,16.9h310.2c10.7,0,20.4-7.5,21.7-16.9l23.1-165.5c1.7-10.4-5.2-20.3-15.6-22-1.3-.1-2.5-.3-3.8-.3h-.1ZM63.3,238.7h12.9v12.9h-12.9v-12.9ZM64.6,261.9h12.9v12.9h-12.9v-12.9ZM65.9,285h12.9v12.9h-12.9v-12.9ZM67.2,308.2h12.9v12.9h-12.9v-12.9ZM68.5,344.2v-12.9h12.9v12.9h-12.9ZM82.7,367.3h-12.9v-12.9h12.9v12.9ZM87.1,239h12.9v12.9h-12.9v-12.9ZM88.1,262.2h12.9v12.9h-12.9v-12.9ZM89.2,285.3h12.9v12.9h-12.9v-12.9ZM90.4,308.5h12.9v12.9h-12.9v-12.9ZM91.4,331.5h12.9v12.9h-12.9v-12.9ZM105.4,367.5h-12.9v-12.9h12.9v12.9ZM110.8,239.2h12.9v12.9h-12.9v-12.9ZM111.7,262.3h12.9v12.9h-12.9v-12.9ZM112.5,285.5h12.9v12.9h-12.9v-12.9ZM113.4,308.6h12.9v12.9h-12.9v-12.9ZM114.4,331.6h12.9v12.9h-12.9v-12.9ZM128.1,367.6h-12.9v-12.9h12.9v12.9ZM134.5,239.3h12.9v12.9h-12.9v-12.9ZM135.2,262.5h12.9v12.9h-12.9v-12.9ZM135.8,285.6h12.9v12.9h-12.9v-12.9ZM136.5,308.8h12.9v12.9h-12.9v-12.9ZM137.3,331.8h12.9v12.9h-12.9v-12.9ZM150.9,367.8h-12.9v-12.9h12.9v12.9ZM158.2,239.5h12.9v12.9h-12.9v-12.9ZM158.7,262.6h13v12.9h-13v-12.9ZM159.3,285.8h12.9v12.9h-12.9v-12.9ZM159.7,308.9h12.9v12.9h-12.9v-12.9ZM160.3,332h12.9v12.9h-12.9v-12.9ZM173.6,368.1h-12.9v-12.9h12.9v12.9ZM182,239.6h12.9v12.9h-12.9v-12.9ZM182.3,262.8h12.9v12.9h-12.9v-12.9ZM182.5,285.9h12.9v12.9h-12.9v-12.9ZM182.8,309h12.9v12.9h-12.9v-12.9ZM183.1,332.2h12.9v12.9h-12.9v-12.9ZM196.3,368.2h-12.9v-12.9h12.9v12.9ZM205.7,239.9h12.9v12.9h-12.9v-12.9ZM205.8,263h12.9v12.9h-12.9v-12.9ZM205.8,286.2h12.9v12.9h-12.9v-12.9ZM206,309.3h12.9v12.9h-12.9v-12.9ZM206.1,332.3h12.9v12.9h-12.9v-12.9ZM219.1,368.4h-12.9v-12.9h12.9v12.9ZM241.9,368.4h-12.9v-12.9h12.9v12.9ZM242,345.2h-12.9v-12.9h12.9v12.9ZM242,322.1h-12.9v-12.9h12.9v12.9ZM242.1,298.9h-12.9v-12.9h12.9v12.9ZM242.3,275.8h-12.9v-12.9h12.9v12.9ZM242.3,252.6h-12.9v-12.9h12.9v12.9ZM264.6,368.1h-12.9v-12.9h12.9v12.9ZM264.9,344.9h-12.9v-12.9h12.9v12.9ZM265.1,321.8h-12.9v-12.9h12.9v12.9ZM265.4,298.6h-12.9v-12.9h12.9v12.9ZM265.7,275.5h-12.9v-12.9h12.9v12.9ZM266,252.3h-12.9v-12.9h12.9v12.9ZM287.3,367.8h-12.9v-12.9h12.9v12.9ZM287.9,344.6h-12.9v-12.9h12.9v12.9ZM288.3,321.5h-12.9v-12.9h12.9v12.9ZM288.7,298.3h-12.9v-12.9h12.9v12.9ZM289.3,275.2h-12.9v-12.9h12.9v12.9ZM289.7,252h-12.9v-12.9h12.9v12.9ZM310,367.3h-12.9v-12.9h12.9v12.9ZM310.7,344.2h-12.9v-12.9h12.9v12.9ZM311.4,321.1h-12.9v-12.9h12.9v12.9ZM312.2,297.9h-12.9v-12.9h12.9v12.9ZM312.7,274.8h-12.9v-12.9h12.9v12.9ZM313.5,251.6h-12.9v-12.9h12.9v12.9ZM332.7,367.1h-12.9v-12.9h12.9v12.9ZM333.7,343.9h-13v-12.9h13v12.9ZM334.6,320.8h-12.9v-12.9h12.9v12.9ZM335.4,297.6h-12.9v-12.9h12.9v12.9ZM336.3,274.5h-12.9v-12.9h12.9v12.9ZM337.2,251.3h-12.9v-12.9h12.9v12.9ZM355.4,367.1h-12.9v-12.9h12.9v12.9ZM356.6,343.9h-12.9v-12.9h12.9v12.9ZM357.6,320.8h-12.9v-12.9h12.9v12.9ZM358.7,297.6h-12.9v-12.9h12.9v12.9ZM359.8,274.5h-12.9v-12.9h12.9v12.9ZM360.9,251.3h-12.9v-12.9h12.9v12.9ZM378.1,366.8h-12.9v-12.9h12.9v12.9ZM379.4,343.6h-12.9v-12.9h12.9v12.9ZM380.7,320.5h-12.9v-12.9h12.9v12.9ZM382,297.3h-12.9v-12.9h12.9v12.9ZM383.3,274.2h-12.9v-12.9h12.9v12.9ZM384.6,251h-12.9v-12.9h12.9v12.9Z"/>
  <polygon class="cls-1" points="195.4 297.8 184.1 297.8 184.1 298.3 197 298.3 197 285.3 195.4 285.3 195.4 297.8"/>
  <polygon class="cls-1" points="195.1 274.8 183.6 274.8 183.6 275.2 196.6 275.2 196.6 262.3 195.1 262.3 195.1 274.8"/>
  <polygon class="cls-1" points="194.8 251.6 183.1 251.6 183.1 252 196 252 196 239.2 194.8 239.2 194.8 251.6"/>
  <polygon class="cls-1" points="221.2 354.6 219.1 354.6 219.1 367.1 208.3 367.1 208.3 367.5 221.2 367.5 221.2 354.6"/>
  <polygon class="cls-1" points="198.5 354.6 196.4 354.6 196.4 367.1 185.6 367.1 185.6 367.5 198.5 367.5 198.5 354.6"/>
  <polygon class="cls-1" points="219 344.1 208 344.1 208 344.5 220.9 344.5 220.9 331.5 219 331.5 219 344.1"/>
  <polygon class="cls-1" points="171.7 274.8 160.1 274.8 160.1 275.2 173 275.2 173 262.3 171.7 262.3 171.7 274.8"/>
  <polygon class="cls-1" points="195.7 320.9 184.6 320.9 184.6 321.3 197.6 321.3 197.6 308.5 195.7 308.5 195.7 320.9"/>
  <polygon class="cls-1" points="196 344.1 185.1 344.1 185.1 344.5 198 344.5 198 331.5 196 331.5 196 344.1"/>
  <polygon class="cls-1" points="218.9 320.9 207.7 320.9 207.7 321.3 220.6 321.3 220.6 308.5 218.9 308.5 218.9 320.9"/>
  <polygon class="cls-1" points="242.1 297.8 230.7 297.8 230.7 298.3 243.7 298.3 243.7 285.3 242.1 285.3 242.1 297.8"/>
  <polygon class="cls-1" points="242 320.9 230.9 320.9 230.9 321.3 243.7 321.3 243.7 308.5 242 308.5 242 320.9"/>
  <polygon class="cls-1" points="242.3 251.6 230.6 251.6 230.6 252 243.4 252 243.4 239.2 242.3 239.2 242.3 251.6"/>
  <polygon class="cls-1" points="242.3 274.8 230.7 274.8 230.7 275.2 243.6 275.2 243.6 262.3 242.3 262.3 242.3 274.8"/>
  <polygon class="cls-1" points="172.1 297.8 160.7 297.8 160.7 298.3 173.7 298.3 173.7 285.3 172.1 285.3 172.1 297.8"/>
  <polygon class="cls-1" points="266.7 354.6 264.6 354.6 264.6 367.1 253.7 367.1 253.7 367.5 266.7 367.5 266.7 354.6"/>
  <polygon class="cls-1" points="244 354.6 241.9 354.6 241.9 367.1 231 367.1 231 367.5 244 367.5 244 354.6"/>
  <polygon class="cls-1" points="218.7 274.8 207.1 274.8 207.1 275.2 220 275.2 220 262.3 218.7 262.3 218.7 274.8"/>
  <polygon class="cls-1" points="218.9 297.8 207.4 297.8 207.4 298.3 220.3 298.3 220.3 285.3 218.9 285.3 218.9 297.8"/>
  <polygon class="cls-1" points="218.6 251.6 206.8 251.6 206.8 252 219.7 252 219.7 239.2 218.6 239.2 218.6 251.6"/>
  <polygon class="cls-1" points="241.9 344.1 231 344.1 231 344.5 243.9 344.5 243.9 331.5 241.9 331.5 241.9 344.1"/>
  <polygon class="cls-1" points="130.3 354.6 128.1 354.6 128.1 367.1 117.4 367.1 117.4 367.5 130.3 367.5 130.3 354.6"/>
  <polygon class="cls-1" points="103.3 320.9 92.1 320.9 92.1 321.3 105 321.3 105 308.5 103.3 308.5 103.3 320.9"/>
  <polygon class="cls-1" points="102.1 297.8 90.8 297.8 90.8 298.3 103.7 298.3 103.7 285.3 102.1 285.3 102.1 297.8"/>
  <polygon class="cls-1" points="127.3 344.1 116.3 344.1 116.3 344.5 129.2 344.5 129.2 331.5 127.3 331.5 127.3 344.1"/>
  <polygon class="cls-1" points="126.4 320.9 115.1 320.9 115.1 321.3 128.1 321.3 128.1 308.5 126.4 308.5 126.4 320.9"/>
  <polygon class="cls-1" points="101.1 252 101.1 239.2 99.9 239.2 99.9 251.6 88.2 251.6 88.2 252 101.1 252"/>
  <polygon class="cls-1" points="125.5 297.8 114.1 297.8 114.1 298.3 127 298.3 127 285.3 125.5 285.3 125.5 297.8"/>
  <polygon class="cls-1" points="102.4 275.2 102.4 262.3 101.1 262.3 101.1 274.8 89.5 274.8 89.5 275.2 102.4 275.2"/>
  <polygon class="cls-1" points="107.6 354.6 105.4 354.6 105.4 367.1 94.7 367.1 94.7 367.5 107.6 367.5 107.6 354.6"/>
  <polygon class="cls-1" points="104.3 344.1 93.4 344.1 93.4 344.5 106.3 344.5 106.3 331.5 104.3 331.5 104.3 344.1"/>
  <polygon class="cls-1" points="173.1 344.1 162.1 344.1 162.1 344.5 175 344.5 175 331.5 173.1 331.5 173.1 344.1"/>
  <polygon class="cls-1" points="147.4 251.6 135.7 251.6 135.7 252 148.5 252 148.5 239.2 147.4 239.2 147.4 251.6"/>
  <polygon class="cls-1" points="148.8 297.8 137.4 297.8 137.4 298.3 150.3 298.3 150.3 285.3 148.8 285.3 148.8 297.8"/>
  <polygon class="cls-1" points="148.1 274.8 136.5 274.8 136.5 275.2 149.4 275.2 149.4 262.3 148.1 262.3 148.1 274.8"/>
  <polygon class="cls-1" points="172.6 320.9 161.4 320.9 161.4 321.3 174.4 321.3 174.4 308.5 172.6 308.5 172.6 320.9"/>
  <polygon class="cls-1" points="175.7 354.6 173.6 354.6 173.6 367.1 162.9 367.1 162.9 367.5 175.7 367.5 175.7 354.6"/>
  <polygon class="cls-1" points="150.1 344.1 139.3 344.1 139.3 344.5 152.2 344.5 152.2 331.5 150.1 331.5 150.1 344.1"/>
  <polygon class="cls-1" points="123.7 251.6 111.9 251.6 111.9 252 124.8 252 124.8 239.2 123.7 239.2 123.7 251.6"/>
  <polygon class="cls-1" points="153 354.6 150.9 354.6 150.9 367.1 140.2 367.1 140.2 367.5 153 367.5 153 354.6"/>
  <polygon class="cls-1" points="124.5 274.8 113 274.8 113 275.2 126 275.2 126 262.3 124.5 262.3 124.5 274.8"/>
  <polygon class="cls-1" points="149.6 320.9 138.3 320.9 138.3 321.3 151.3 321.3 151.3 308.5 149.6 308.5 149.6 320.9"/>
  <polygon class="cls-1" points="171.1 251.6 159.4 251.6 159.4 252 172.3 252 172.3 239.2 171.1 239.2 171.1 251.6"/>
  <polygon class="cls-1" points="362.1 239.2 360.9 239.2 360.9 251.6 349.2 251.6 349.2 252 362.1 252 362.1 239.2"/>
  <polygon class="cls-1" points="361.2 262.3 359.9 262.3 359.9 274.8 348.3 274.8 348.3 275.2 361.2 275.2 361.2 262.3"/>
  <polygon class="cls-1" points="360.3 285.3 358.7 285.3 358.7 297.8 347.5 297.8 347.5 298.3 360.3 298.3 360.3 285.3"/>
  <polygon class="cls-1" points="382.6 308.5 380.7 308.5 380.7 320.9 369.6 320.9 369.6 321.3 382.6 321.3 382.6 308.5"/>
  <polygon class="cls-1" points="337.6 262.3 336.3 262.3 336.3 274.8 324.7 274.8 324.7 275.2 337.6 275.2 337.6 262.3"/>
  <polygon class="cls-1" points="381.5 331.5 379.4 331.5 379.4 344.1 368.6 344.1 368.6 344.5 381.5 344.5 381.5 331.5"/>
  <polygon class="cls-1" points="338.3 239.2 337.2 239.2 337.2 251.6 325.5 251.6 325.5 252 338.3 252 338.3 239.2"/>
  <polygon class="cls-1" points="357.6 354.6 355.4 354.6 355.4 367.1 344.7 367.1 344.7 367.5 357.6 367.5 357.6 354.6"/>
  <polygon class="cls-1" points="358.5 331.5 356.6 331.5 356.6 344.1 345.6 344.1 345.6 344.5 358.5 344.5 358.5 331.5"/>
  <polygon class="cls-1" points="359.5 308.5 357.7 308.5 357.7 320.9 346.4 320.9 346.4 321.3 359.5 321.3 359.5 308.5"/>
  <polygon class="cls-1" points="380.3 354.6 378.3 354.6 378.3 367.1 367.4 367.1 367.4 367.5 380.3 367.5 380.3 354.6"/>
  <rect class="cls-1" x="394" y="285.3" width="12.9" height="12.9"/>
  <rect class="cls-1" x="396.6" y="239.2" width="12.9" height="12.9"/>
  <rect class="cls-1" x="392.7" y="308.5" width="12.9" height="12.9"/>
  <rect class="cls-1" x="391.4" y="331.5" width="12.9" height="12.9"/>
  <polygon class="cls-1" points="384.8 262.3 383.3 262.3 383.3 274.8 371.8 274.8 371.8 275.2 384.8 275.2 384.8 262.3"/>
  <polygon class="cls-1" points="383.6 285.3 382 285.3 382 297.8 370.7 297.8 370.7 298.3 383.6 298.3 383.6 285.3"/>
  <polygon class="cls-1" points="266.7 331.5 264.9 331.5 264.9 344.1 253.9 344.1 253.9 344.5 266.7 344.5 266.7 331.5"/>
  <polygon class="cls-1" points="390.1 354.6 390.1 367.5 402.4 367.5 403.2 363.1 403.2 354.6 390.1 354.6"/>
  <rect class="cls-1" x="395.3" y="262.3" width="12.9" height="12.9"/>
  <polygon class="cls-1" points="384.6 251.6 372.9 251.6 372.9 252 385.8 252 385.8 239.2 384.6 239.2 384.6 251.6"/>
  <polygon class="cls-1" points="289.7 331.5 287.7 331.5 287.7 344.1 276.9 344.1 276.9 344.5 289.7 344.5 289.7 331.5"/>
  <polygon class="cls-1" points="290 308.5 288.3 308.5 288.3 320.9 277.2 320.9 277.2 321.3 290 321.3 290 308.5"/>
  <polygon class="cls-1" points="290.9 239.2 289.7 239.2 289.7 251.6 278 251.6 278 252 290.9 252 290.9 239.2"/>
  <polygon class="cls-1" points="290.6 262.3 289.3 262.3 289.3 274.8 277.7 274.8 277.7 275.2 290.6 275.2 290.6 262.3"/>
  <polygon class="cls-1" points="289.4 354.6 287.3 354.6 287.3 367.1 276.6 367.1 276.6 367.5 289.4 367.5 289.4 354.6"/>
  <polygon class="cls-1" points="290.3 285.3 288.7 285.3 288.7 297.8 277.4 297.8 277.4 298.3 290.3 298.3 290.3 285.3"/>
  <polygon class="cls-1" points="266.9 308.5 265.1 308.5 265.1 320.9 254 320.9 254 321.3 266.9 321.3 266.9 308.5"/>
  <polygon class="cls-1" points="267 285.3 265.4 285.3 265.4 297.8 254 297.8 254 298.3 267 298.3 267 285.3"/>
  <polygon class="cls-1" points="267 262.3 265.7 262.3 265.7 274.8 254.1 274.8 254.1 275.2 267 275.2 267 262.3"/>
  <polygon class="cls-1" points="267.2 239.2 266 239.2 266 251.6 254.3 251.6 254.3 252 267.2 252 267.2 239.2"/>
  <polygon class="cls-1" points="314.2 262.3 312.7 262.3 312.7 274.8 301.2 274.8 301.2 275.2 314.2 275.2 314.2 262.3"/>
  <polygon class="cls-1" points="334.9 354.6 332.7 354.6 332.7 367.1 322 367.1 322 367.5 334.9 367.5 334.9 354.6"/>
  <polygon class="cls-1" points="335.6 331.5 333.7 331.5 333.7 344.1 322.7 344.1 322.7 344.5 335.6 344.5 335.6 331.5"/>
  <polygon class="cls-1" points="314.6 239.2 313.5 239.2 313.5 251.6 301.7 251.6 301.7 252 314.6 252 314.6 239.2"/>
  <polygon class="cls-1" points="336.3 308.5 334.6 308.5 334.6 320.9 323.4 320.9 323.4 321.3 336.3 321.3 336.3 308.5"/>
  <polygon class="cls-1" points="312.2 354.6 310 354.6 310 367.1 299.3 367.1 299.3 367.5 312.2 367.5 312.2 354.6"/>
  <polygon class="cls-1" points="313.2 308.5 311.4 308.5 311.4 320.9 300.3 320.9 300.3 321.3 313.2 321.3 313.2 308.5"/>
  <polygon class="cls-1" points="312.7 331.5 310.7 331.5 310.7 344.1 299.7 344.1 299.7 344.5 312.7 344.5 312.7 331.5"/>
  <polygon class="cls-1" points="313.6 285.3 312.2 285.3 312.2 297.8 300.7 297.8 300.7 298.3 313.6 298.3 313.6 285.3"/>
  <polygon class="cls-1" points="337 285.3 335.4 285.3 335.4 297.8 324 297.8 324 298.3 337 298.3 337 285.3"/>
  <rect class="cls-5" x="122.4" y="147.3" width="184.7" height="62.9"/>
  <path class="cls-1" d="M440.3,182H10.1s-3.2,34.4,4.3,34.4c0,0-6.2,7.4,209.2,7.4s212.4-7.4,212.4-7.4c7.4,0,4.3-34.4,4.3-34.4Z"/>
  <path class="cls-5" d="M329.4,112l-229.3.4c-20.8,0-42.2,5.5-48,12.9l-38.8,48.2c-10.6,13,5.9,24.9,37.8,24.9l351.7.4c32.8,0,46.4-11.9,32.1-25.2l-52.9-48.8c-8-7.4-31.2-12.9-52.5-12.9h0ZM400.5,173.6c4.2,4.6-1,8.4-12,8.4l-327.9-.3c-10.7,0-16.8-3.8-13.9-8.4l31.5-48.2c1.7-2.6,9.5-4.8,17.4-4.8l240.6-.3c8,0,16.5,2.2,19,4.8l45.4,48.8Z"/>
  <path class="cls-4" d="M332.1,115.3l-233.9.4c-15.5,0-31.2,4.2-35.2,9.5l-35.7,48.2c-6.9,9.4,5.4,17.5,27.8,17.6l341.3.4c23.1,0,33.4-8.2,23.7-17.8l-49.8-48.8c-5.5-5.4-22.6-9.5-38.3-9.5h.1ZM400.5,173.6c4.2,4.6-1,8.4-12,8.4l-327.9-.3c-10.7,0-16.8-3.8-13.9-8.4l31.5-48.2c1.7-2.6,9.5-4.8,17.4-4.8l240.6-.3c8,0,16.5,2.2,19,4.8l45.4,48.8Z"/>
  <path class="cls-4" d="M332.1,115.3l-139.6.3h-67.1c0,.1-18.1.1-18.1.1h-9.3c-3,0-6.2.1-9.3.6-5.6.6-11.1,1.7-16.5,3.5-2,.7-3.9,1.6-5.8,2.7-1.3.7-2.5,1.7-3.3,3l-22.3,30.4-6.9,9.7-3.8,5.2-2,2.7c-.6.9-1.2,1.7-1.4,2.7-.7,1.7-.6,3.8.3,5.4,1.2,2,3,3.6,5.1,4.8,3,1.6,6.4,2.7,9.8,3.3,4.5.9,9,1.3,13.6,1.3l237.4.3h97.4c4.5,0,9,0,13-.3,8-.6,14-2.6,17.2-5.1s3.9-5.5,2.5-8.5c-.4-.9-.9-1.6-1.4-2.3s-1.3-1.4-2-2.2l-4.3-4.2-8-7.8-24.3-23.7-8.5-8.4-3.6-3.5c-1.3-1.3-2.6-2.3-4.2-3-3.9-1.9-8-3.5-12.3-4.3-3.9-.9-7.8-1.6-11.9-2-1.7-.1-3.2-.3-4.5-.3h-3.2c0-.1-2.6-.1-2.6-.1h0v-.3ZM332.1,115.3h5.8c1.3.3,2.7.3,4.5.6,4.1.4,8,1,11.9,2,4.3.9,8.4,2.5,12.3,4.3,1.6.7,3,1.9,4.2,3l3.6,3.5,8.7,8.4,24.4,23.7,8,7.8,4.3,4.2,2.2,2.2c.6.7,1,1.4,1.4,2.3,1.4,3,.9,6.1-2.5,8.7-3.3,2.6-9.3,4.5-17.5,5.2-4.1.4-8.7.3-13.2.3H55.1c-4.8,0-9.4-.6-14.2-1.4-3.5-.6-6.9-1.9-10.1-3.5-2.2-1-4.1-2.7-5.2-4.9-.9-1.7-1-3.8-.3-5.5.4-1,.9-1.9,1.6-2.7l2-2.7,3.8-5.2c2.5-3.3,4.8-6.5,7.1-9.5l22.7-30.4c.9-1.3,2.2-2.3,3.5-3,1.9-1.2,3.9-2,5.9-2.7,5.5-1.9,11.1-3,16.9-3.6,3.2-.3,6.4-.4,9.5-.4h94.3l139.6-.3h-.1Z"/>
  <path class="cls-4" d="M400.5,173.6l.3.3c.3.3.4.6.7.9.7,1,.7,2.3,0,3.3-.7.9-1.6,1.6-2.6,2-1.9.9-3.9,1.3-5.9,1.6-1.4.1-2.9.3-4.3.3H57.3c-.6,0-1-.1-1.4-.3-1.7-.1-3.3-.6-5.1-1.2-1.2-.4-2.3-1-3.5-1.7-.7-.6-1.3-1.3-1.7-2.2-.3-.7-.3-1.6,0-2.3.4-.9.9-1.6,1.4-2.3.4-.7,1-1.6,1.4-2.3l11.1-16.9c6.5-10,12.6-19.1,18.1-27.5.4-.6,1-1,1.7-1.4.9-.6,1.9-1,2.9-1.4,1.3-.4,2.6-.9,4.1-1.2,1.6-.3,3.2-.6,4.8-.7s3.3-.3,4.9-.3h242.5c2.6,0,5.1.4,7.5,1h.9c0,.1.9.4.9.4h.7c0,.1.7.4.7.4l.7.3c.3,0,.4.1.7.3l.7.3.6.3h.3l.3.3.6.3.9.6c.3.1.6.3.7.6s.4.4.6.6c.7.7,1.4,1.4,2,2.2l4.2,4.5,8.2,8.8,15.2,16.1,15.6,16.8v-.3ZM400.5,173.6l-15.6-16.8-15.3-16.3-8.2-8.8-4.2-4.5-2-2.2c-.1-.1-.4-.3-.6-.6s-.4-.3-.7-.6-.6-.3-.9-.6l-.6-.3h-.3l-.3-.3-.6-.3c-.1,0-.4-.1-.7-.3l-.7-.3-.7-.3h-.7c0-.1-.7-.4-.7-.4h-.9c0-.1-.9-.4-.9-.4-2.5-.4-4.9-.9-7.4-.9h-116.9c0,.1-73.8.3-73.8.3h-52.1c-1.6,0-3,0-4.6.1-1.4.1-2.9.4-4.3.7-1.3.3-2.5.6-3.8,1-1,.3-1.9.7-2.7,1.3-.6.4-1.2.9-1.6,1.4l-18.1,27.5-11.1,16.9-1.4,2.3c-.6.7-1,1.4-1.4,2.3-.3.7-.3,1.4,0,2.3s.9,1.6,1.6,2c1,.7,2,1.3,3.2,1.6,1.6.4,3,.9,4.6,1h11.7l177.6.3h127.2c0,.1,15.9.1,15.9.1,1.4,0,2.9,0,4.3-.3,2-.1,4.1-.6,5.9-1.4,1-.4,1.9-1.2,2.6-2,.6-1,.6-2.3,0-3.3-.1-.3-.4-.6-.6-.9h-.1v.4Z"/>
  <path class="cls-1" d="M333.7,120l-235.5-.4c-12.4,0-25.7,4.5-28.8,8.7l-34.1,48.3c-5.2,7.4,4.6,13.7,22.3,13.7l335.8.3c18.1,0,26.5-6.5,19.1-13.9l-48-48.8c-4.3-4.3-16.8-8.1-31-8h.3ZM400.8,176.7c.7,1.6-1.3,5.4-12.3,5.4l-324.9-.4c-10.7,0-20-2-18.1-7.2l33-46.1c1.7-2.6,9.5-4.8,17.4-4.8l240.6-.3c8,0,16.5,2.2,19,4.8l45.4,48.8Z"/>
  <path class="cls-3" d="M388.5,182c10.8,0,13-3.8,12.3-5.4l-45.4-48.8c-2.5-2.7-11-4.8-19-4.8h-114v58.7l166.1.3h0Z"/>
  <path class="cls-3" d="M78.5,128.2l-33,46.1c-1.9,5.1,7.4,7.2,18.1,7.2l158.8.3v-58.6h-126.6c-7.8.1-15.6,2.3-17.4,4.9h0Z"/>
  <path class="cls-1" d="M324.3,37.8l1.3-1h0c.9-.6,1.6-1.2,2.5-1.6h0l1.2-.7h0l1.2-.6h0l1-.6,1.2-.6h.1c.3-.1.6-.3.9-.4h.3l.6-.3h.9c0-.1,1.9-.1,1.9-.1,0,0,.3,0,.4.1h0s.3.1.3.3l-.6-.7v-.3c-.1,0-.6-.4-.6-.4l-.7-.9-.3-.3-.6-.7v-.3c-.1,0-.7-.6-.7-.6v-.3c-.1,0-1-.9-1-.9l-.3-.3-.4-.4c-.1-.3-.4-.4-.6-.7l-2-2.5-.3-.3h0s-.3,0-.4-.1h-2.2l-.3.3-.6.3h-.3c-.3,0-.6.3-.9.3h-.3c0,.1-1.2.7-1.2.7h-.3l-.3.3h-.6v.3h-.3v.3h-.3v.3h-.4c0,.1-.1.1-.1.1h-.1c0,.1-.1.1-.1.1h-.1c0,.1-.1.1-.1.1h-.1c0,.1-.3.1-.3.1h0c0,.1-.1.1-.1.1h-.1c0,.1-.1.3-.1.3h0c0,.1-.3.1-.3.1h0v.3h0v.3h0c0,.1-.3.4-.3.4h0c0,.1-.1.1-.1.1h0c0,.1-.1.1-.1.1h0c0,.1-.3.1-.3.1h-.6l-119.3,97.2h18.1c0,.1,108.8-88.1,108.8-88.1.4-.3.9-.7,1.3-1v.9l-2.7.9Z"/>
  <polygon class="cls-1" points="344.1 19.1 348.3 23.9 373.2 57.3 364.8 46.9 344.1 19.1"/>
  <path class="cls-1" d="M373.9,59.8v-.3h0v-.3h0v-.3h0v-.3h0v-.3h0v-.3h0v-.3h0l-9.1-10.7s.1.3.3.4h0c0,.1,0,.3.1.4h0v.6h0v.6h0v.6h0v.7h0v.7h0c0,.3,0,.4-.1.7h0c0,.3-.1.6-.3.7h0c0,.3-.1.6-.3.9h0c0,.3-.3.6-.4.9h0l-.4.9h0c-.1.3-.3.6-.4.9h0c-.1.3-.3.6-.6.9h0l-.6,1h0l-.7,1h0c-.1.3-.4.7-.7,1h0l-.7,1h0l-.9,1h0l-.9,1h0c-.3.4-.6.7-.9,1.2h0l-1,1.2h0l-1,1.2h0l-1,1.2h0l-1.2,1.2h0l-1.2,1.2h0l-1.2,1.2h0l-1.3,1.2h0l-1.3,1.2h0l-1.3,1.2h0l-1.3,1.2h0l-1.3,1.2-135.8,115.3h16.5l127.4-104.2h0v-.4h.1v-.3h.3v-.3h.3c0-.1.1-.1.1-.1v-.3h.3v-.3h.3v-.3h.1v-.3h0v-.4h0v-.4h0c0-.1.1-.1.1-.1v-.3h0v-.4h0v-.3h0v-.3h0v-.4h0v-.3h.1v-.3h.1v-.3h.3c0-.1.1-.3.1-.3h.1c0-.1.1-.3.1-.3h.1c0-.1.1-.3.1-.3h.1c0-.1.3-.4.3-.4l.3-.3.3-.3h0l.3-.3s.3-.3.4-.4l.3-.3h0v-.3c.1,0,.4-.4.4-.4l.3-.3h0v-.3c.1,0,.4-.3.4-.3l.3-.3h.1c0-.1.1-.4.1-.4h.1c0-.1.1-.4.1-.4h.1c0-.1.1-.4.1-.4h.1c0-.1.1-.3.1-.3h.1c0-.1.1-.4.1-.4h.1v-.3h.1c0-.1.1-.4.1-.4h.1c0-.1.1-.4.1-.4v-.3h.3c0-.1.1-.4.1-.4v-.3c.1,0,.3,0,.3-.3h.1c0-.1.1-.4.1-.4v-.3c.1,0,.4-.3.4-.3h0v-.6c.1,0,.4-.3.4-.3v-.3h.1v-.3c.1,0,.4-.3.4-.3v-.3h.1v-.3c.1,0,.4-.3.4-.3h0c0-.1.1-.6.1-.6,0,0,0-.3.1-.3h0v-.6c.1,0,.3-.3.3-.3h0v-.6c.1,0,.3-.1.3-.3h0c0-.1,1-1.6,1-1.6v-.3h0v-1h.1v-.7h0v-.4h0v-.4h0v-.3h0v-.3h0v-.3h0v-.3h0v-.3l.7-.3,7.1-.6Z"/>
  <polygon class="cls-4" points="333 314.7 116.3 315.3 111.7 223.8 336.3 223.8 333 314.7"/>
  <path class="cls-8" d="M321.6,25.5c4.8-2.3,10.4-.7,13.2,3.9,5.5,8.1,0-7.2-3.6-8.1s-9.4,3.2-9.5,4.2Z"/>
  <path class="cls-8" d="M364.8,46.9l-19.8-26.8c-5.1-6.8-11.9-5.2-15.6-3.6-2.2,1.2-4.3,2.3-6.5,3.8-3.2,2-6.2,4.2-9.1,6.7l-123.3,100.3h5.6c0-.1,119.3-97.4,119.3-97.4,1.6-1.3,3.3-2.6,5.1-3.6,1.4-.9,2.9-1.7,4.5-2.5,1.2-.6,2.3-.9,3.5-1,.7-.1,1.4,0,1.9.6l22.6,33.3c.4.9.4,1.9,0,2.7-.6,1.4-1.2,2.7-2.2,4.1-1.2,1.7-2.5,3.3-3.9,4.8-1.7,1.7-3.5,3.5-5.5,4.9l-141.2,118.8h8.2l135.4-114.7c3.5-2.9,6.8-5.9,10-9.1,2.6-2.7,5.1-5.6,7.2-8.7,1.6-2.2,2.9-4.6,3.8-7.2.7-1.6.6-3.5-.1-4.9v-.3Z"/>
  <ellipse class="cls-1" cx="205.5" cy="127.1" rx="14.9" ry="11.7"/>
  <path class="cls-6" d="M213.4,127.1c0,3.8-3.5,6.9-7.8,6.9s-7.8-3-7.8-6.9,3.5-6.9,7.8-6.9,7.8,3,7.8,6.9Z"/>
  <rect class="cls-2" x="108.6" y="229" width="232" height="91.6"/>
  <path class="cls-7" d="M125.7,236.9l-2.3,7.8c2.7,0,5.5-.1,8.4-.1-3.3,11.7-6.1,20.5-8.4,26.6h10.3c1.6-9.1,3.9-18.1,7.2-26.6,2.7,0,5.5,0,8.4.1l2.3-7.8h-25.9Z"/>
  <path class="cls-7" d="M174.7,277.4c-2.7,0-5.2-2-7.2-6.2h0c-.7-1.4-1.3-2.9-1.7-4.3-.4-1.2-.7-2.5-.9-3.6-.4-2.7-.7-5.6-.9-8.5v-2.7c0-5.6,1-11.3,3-16.5h-12.9c-4.8,11.1-10.8,23.1-17.9,35.9h11.1c.7-2.2,1.4-4.5,2.2-6.8h6.4c.1,4.3,1.2,8.5,2.9,12.6,2.2,4.6,5.5,6.9,9.8,6.9s9-2.7,11.7-8.2c-.9,1-2.7,1.6-5.5,1.6h-.1ZM155.6,257.4h-3.3c1.2-2.6,2.3-5.2,3.6-7.7-.3,2.7-.4,5.4-.4,7.7h.1Z"/>
  <path class="cls-7" d="M194.3,250.2c3.5-1.6,5.2-3.6,5.2-6.2s-.9-4.5-2.6-5.8c-1.9-1.3-4.1-1.9-6.4-1.7-1.2,0-2.3,0-3.5.3-1.2.1-2.3.3-3.5.3h-9.3c-1.9,10.3-4.8,20.3-8.5,29.8-.6,1.4-1.2,3-1.9,4.5h9.7c2.6,2,5.8,3,9,3,4.3.1,8.5-1,12-3.5,3.3-2.7,5.2-6.8,5.1-11.1,0-5.1-1.9-8.2-5.5-9.4h.1ZM185.6,261.7c-.9,1.2-2.3,1.9-3.9,1.7-1.4,0-2.9-.4-4.1-1.3l2.2-7.1c.9-.4,1.9-.6,2.7-.6,2.7,0,4.2,1,4.2,3s-.3,3-1.2,4.2h0ZM189.3,247.3c-.6.7-1.4,1.2-2.5,1.2h-5.1l1.6-5.1c.9-.9,2-1.3,3.3-1.3s1.7.1,2.5.6c.7.4,1.3,1.2,1.3,2s-.4,1.9-1,2.6h-.1Z"/>
  <path class="cls-7" d="M230.1,247.4c1.3,0,2.6-.6,3.5-1.6.9-1,1.3-2.5,1.3-3.8,0-4.5-3.5-6.7-10.6-6.7s-12.6,2.9-12.6,9,.9,4.8,2.6,6.7l4.8,4.3c1.6,1.3,2.5,3.2,2.6,5.1,0,2.9-1.6,4.3-4.8,4.3s-4.9-1.3-4.9-3.9,1.2-3.5,2.9-4.1c-1.6-1.3-3.6-2-5.8-2.2-1.4,0-2.7.4-3.9,1.3-2.6,1.6-4.2,4.5-4.1,7.5,0,1.4.3,2.7,1,4.1,0,.3.3.6.4.7.6.9,1.3,1.7,2,2.5.4.4,1,.9,1.6,1.3,3,1.7,6.5,2.5,10,2.5s7.2-1.2,10.1-3.3c3-1.9,4.9-5.2,5.1-8.8,0-2.7-.9-5.5-2.6-7.8l-4.9-4.3c-1.6-1.2-2.5-2.9-2.6-4.9,0-2.6,1.2-3.8,3.5-3.8s1.3.1,1.7.6c.6.3.9.9.9,1.6-.1,1.2-.7,2.2-1.6,2.9,1.3.7,2.9,1.2,4.3,1.2v-.3Z"/>
  <path class="cls-7" d="M247.5,244.5c3.8,0,8.1,0,13.3.1l2.3-7.8h-24.2c-1.6,6.1-4.2,14.9-7.7,26.6-.6,2-1.6,4.6-2.7,7.8h24.2l2.3-7.8h-14.6c.4-2,1-4.1,1.4-5.9,2.9,0,5.9,0,9.3.3l2.3-7.8c-3.3,0-6.2.3-9,.3h-.4c.7-2,1.3-3.9,2.2-5.8h1.3Z"/>
  <path class="cls-7" d="M274.8,244.5c3.8,0,8.1,0,13.5.1l2.3-7.8h-24.2c-1.6,6.1-4.1,14.9-7.7,26.6-.6,2-1.6,4.6-2.7,7.8h24.2l2.3-7.8h-14.5c.4-2,1-4.1,1.6-5.9,2.9,0,5.9,0,9.1.3l2.3-7.8c-3.3,0-6.2.3-9,.3h-.4c.6-2,1.3-3.9,2.2-5.8h1.2-.1Z"/>
  <path class="cls-7" d="M322,276.5c-2.5-.1-4.6-1.2-6.5-2.7-2.2-1.6-4.6-5.6-7.5-12,3-.6,5.8-2.3,7.8-4.9,2-2.5,3.2-5.5,3.3-8.7,0-2-.4-3.9-1.2-5.8-1.4-3.8-5.1-5.6-10.8-5.6h-13c-2.2,11.9-5.6,23.4-10.6,34.4h11l2.9-9.5c3.9,10,6.9,16.1,9.1,18.4,2,2,4.9,3.2,7.8,3,3.2,0,7.1-2.3,11.9-7.1-1.3.4-2.7.7-4.2.6h0ZM303.2,254.1c-1.2,0-2.2-.1-3.3-.6l2.9-9.1h1.9c2.9,0,4.2,1.2,4.2,3.3s-.4,3.2-1.4,4.5c-1,1.3-2.6,2.2-4.2,2h0Z"/>
  <path class="cls-7" d="M241.7,281.4c0-.1-.7-.1-1.6,0h-.6c-3,.7-5.9,1.6-8.7,2.9-1.4.6-2.6,1-2.7,1-.7-1-1.3-2-1.6-3.2-.3-1-.3-2.2.1-3s1.4-1.6,1.7-1.3c.1.3.1.7.1,1,0,.9.4,1.6.9,1.6s1-.9,1.2-1.7c.3-1.4-.6-2.7-1.9-3h-.9c-.3,0-.6,0-.7.1-1.3.6-2.5,1.6-3,2.9-.7,2.3-.6,4.8.7,6.8.1.4.4.9.6,1.3-.4.6-1,1-1.6,1.3-5.6,3.9-5.9,8-.7,9.1,2.3.7,4.9,0,6.5-1.7.9-1,1.2-2.5.9-3.8,0-1.2-.4-2.3-1-3.3l-.9-1.7,2.3-1.2c2.7-1.3,5.5-2.5,8.4-3.3h.1c2.2-.6,2.3-.6,2.2-.9h.1ZM227.5,294.7c-.4.3-.9.6-1.4.7-1,.3-2,.3-3,0-2.6-.9-2.9-2-.7-4.3.9-.9,1.7-1.6,2.6-2.2l1.4-.9.3.4c.3.6.7,1,.9,1.6.7,1.3,1,3.6,0,4.6h0Z"/>
  <path class="cls-7" d="M262.4,283.2c-.4.3-1,.7-1.6,1.3-6.1,4.6-7.1,5.1-8.1,2.7-.7-1.4-.9-2.6-.4-6.2.1-1.3.3-2.6.1-3.9-.3-1.4-1.6-2-2.6-1-2.2,2.7-4.2,5.8-5.8,9-1,1.9-1.9,3.5-1.9,3.5,0,0,0-21.4.3-25.9,0-1.9.1-3.5.3-5.2.1-2.3.3-4.6.6-8.1.1-1.4.3-2.9.1-4.3-.1-.6-.9-1-1.4-.7-.3,0-.6.3-.7.7-.7,3-1,6.1-1.2,9.3,0,.6,0,1.2-.1,1.7-.6,6.9-.6,17.4-.4,25.3v.7c0,5.8.4,10.1.9,10.6.3.3.7.3,1,0h0c0-.1.3-.9.4-1.4,1.4-3.5,3-6.8,4.9-10,1-1.4,2.7-3.5,2.9-3.2,0,.7,0,1.6-.1,2.3-.6,4.3,0,6.9,1.6,8.7,1,1.2,2.6,1.4,3.9.7,2.5-1.6,4.8-3.5,6.9-5.5,1-.7,1.7-1.6,2.5-2.6.3-.1-.1,0-2.2,1.6h.1Z"/>
  <path class="cls-7" d="M279.8,282.3s-.3,0-.3.1c-1.9.9-3.8,1.6-5.8,1.9h-1.2c0,.1.1-.6.1-.6.3-1.6.3-3.3-.3-4.9-.6-1.7-2.3-2.9-4.1-2.7-.9,0-1.7.3-2.6.7-1.3.6-1.4.7-2.2,2.2-.7,1.3-1,2.9-1.2,4.3v1.9c.1,3.2,1.2,5.1,3,5.9.9.6,2.2.6,3,0,1.3-1,2.3-2.2,2.9-3.8q.7-1.4,1.4-1.6c2.3-.6,4.6-1.3,6.8-2.5.6-.3,1.2-.7,1.7-1.2,0-.1.3-.4.3-.6-.6.1-1.2.4-1.7.7h-.1ZM270.5,286.6c-.6,1.2-1.3,2-2.2,2.7-.6.6-1.6.4-2.2-.1h0c-.9-1-1.2-2.3-1.2-3.5v-1.3l.9.4c1.2.6,2.5,1,3.8,1h1.3l-.4.7h0ZM271.7,283.9l-.3.9h-1.3c-1.7.1-3.3-.4-4.6-1.4-.3-.4-.3-.6-.1-1.3.1-.7.4-1.4.9-2.2.3-.4.4-1,.6-1.6-.1-.6.6-.9,1.4-.9h1c2.6.6,3.6,3.2,2.6,6.5h-.1Z"/>
  <path class="cls-7" d="M305.4,281.3c-3.2.7-6.2,1.6-9.3,2.6-.7.3-1.3.4-2,.6,0-.4.3-1,.6-1.4,1-2.5,1-4.5-.1-5.6-1.3-.9-2.9-.9-4.1,0-1.7,1.2-3.3,2.6-4.5,4.2-1.4,2.5-2.7,4.9-3.6,7.7-.3,1-.6,2-.6,2v-14.9c0-.4-.6-.9-1-.7h0c-.3,0-.6.3-.7.6-.1.7-.6,10-.7,21.8v3.2h2.3c0-.9,0-1.7.1-2.6,1.2-10.8,5.4-19.1,10.3-20.3.6-.1,1.3.1,1.4.7v.6c0,1-.4,2-1.9,4.5-.6,1.2-1.4,2.2-2.6,2.9-.7.4-1.6,1-2.2,1.6-.9.7-1.6,1.7-2,2.9,0,1,1.3,1.4,2.3.9,1.6-1.2,3-2.5,4.2-4.1.7-1,1.6-1.7,2.7-2.3s8.4-3.3,10.6-4.1c1.4-.4,1.7-.7.9-.7h-.1Z"/>
</svg>