<svg id="Layer_1" data-name="Layer 1" xmlns="http://www.w3.org/2000/svg" viewBox="0 0 328 355.33"><defs><style>.cls-1{fill:#ebd910;}.cls-2{fill:#252f3f;}.cls-3{fill:#1b4084;}.cls-4{fill:#fff;}</style></defs><rect class="cls-1" x="3.9" width="324.1" height="355.33" rx="17"/><path class="cls-2" d="M520.1,429.25V539.72a17,17,0,0,1-17,17H213a17,17,0,0,1-17-17v-107Z" transform="translate(-196 -203.33)"/><path class="cls-3" d="M520.1,232.05v197.2L196,432.67V232.05a17,17,0,0,1,17-17H503.1A17,17,0,0,1,520.1,232.05Z" transform="translate(-196 -203.33)"/><path class="cls-4" d="M410.29,215a48.74,48.74,0,0,1,.64,8.07,50.93,50.93,0,0,1-101.86,0,48.74,48.74,0,0,1,.64-8.07h-3.1a52.61,52.61,0,0,0-.61,8.07,54,54,0,1,0,108,0,52.61,52.61,0,0,0-.61-8.07Z" transform="translate(-196 -203.33)"/></svg>