<svg id="_Layer_" data-name="&lt;Layer&gt;" xmlns="http://www.w3.org/2000/svg" viewBox="0 0 191.92 191.92"><defs><style>.cls-1{fill:#144084;}.cls-2{fill:none;stroke:#144084;stroke-miterlimit:10;stroke-width:2px;}</style></defs><path class="cls-1" d="M116.57,95.2a2.43,2.43,0,0,1-1.88-.88L100,76.71,85.31,94.32a2.44,2.44,0,1,1-3.75-3.13L98.12,71.34a2.46,2.46,0,0,1,3.45-.31,2.91,2.91,0,0,1,.3.31l16.57,19.85a2.45,2.45,0,0,1-1.87,4Z" transform="translate(-4.04 -4.04)"/><path class="cls-1" d="M119.61,140.75H80.39a2.45,2.45,0,0,1,0-4.89h39.22a2.45,2.45,0,0,1,0,4.89Z" transform="translate(-4.04 -4.04)"/><path class="cls-1" d="M154.13,155.14H45.87a2.45,2.45,0,0,1-2.44-2.45v-88a2.44,2.44,0,0,1,2.44-2.44H81v4.88H48.32v83.09H151.68V67.16H119V62.28h35.12a2.44,2.44,0,0,1,2.44,2.44v88A2.45,2.45,0,0,1,154.13,155.14Z" transform="translate(-4.04 -4.04)"/><path class="cls-1" d="M116.56,95.2a2.45,2.45,0,0,1-2.44-2.45v-43H85.88v43a2.45,2.45,0,1,1-4.89,0V47.31a2.45,2.45,0,0,1,2.45-2.45h33.12A2.45,2.45,0,0,1,119,47.31V92.75A2.45,2.45,0,0,1,116.56,95.2Z" transform="translate(-4.04 -4.04)"/><path class="cls-1" d="M161.07,67.16H119V62.28h38.15l-6.08-12.53H48.92L42.83,62.28H81v4.88H38.93a2.44,2.44,0,0,1-2.44-2.44,2.51,2.51,0,0,1,.25-1.07l8.45-17.41a2.45,2.45,0,0,1,2.2-1.37H152.61a2.44,2.44,0,0,1,2.2,1.37l8.45,17.41a2.45,2.45,0,0,1-2.19,3.52Z" transform="translate(-4.04 -4.04)"/><circle class="cls-2" cx="95.96" cy="95.96" r="94.96"/></svg>