<svg id="Layer_1" data-name="Layer 1" xmlns="http://www.w3.org/2000/svg" viewBox="0 0 191.86 191.86"><defs><style>.cls-1{fill:#184182;fill-rule:evenodd;}.cls-2{fill:none;stroke:#184182;stroke-miterlimit:10;stroke-width:2px;}</style></defs><path class="cls-1" d="M100,51.36a56.49,56.49,0,0,0-56.43,56.42v25.3a15.57,15.57,0,0,0,31.14,0V121.4a15.55,15.55,0,0,0-27.24-10.26v-3.36a52.53,52.53,0,0,1,105.06,0v3.36a15.55,15.55,0,0,0-27.24,10.26v11.68a15.57,15.57,0,0,0,31.14,0v-25.3A56.49,56.49,0,0,0,100,51.36ZM59.14,109.73A11.68,11.68,0,0,1,70.81,121.4v11.68a11.67,11.67,0,0,1-23.34,0V121.4a11.68,11.68,0,0,1,11.67-11.67Zm93.39,23.35a11.67,11.67,0,1,1-23.34,0V121.4a11.67,11.67,0,1,1,23.34,0v11.68Z" transform="translate(-4.07 -4.07)"/><circle class="cls-2" cx="95.93" cy="95.93" r="94.93"/></svg>