<svg id="Layer_1" data-name="Layer 1" xmlns="http://www.w3.org/2000/svg" viewBox="0 0 84.5 84.5"><defs><style>.cls-1{fill:#1c4283;}.cls-2{fill:#fff;}.cls-3,.cls-4{fill:none;stroke:#fff;stroke-miterlimit:10;}.cls-3{stroke-width:0.5px;}.cls-4{stroke-width:2px;}</style></defs><circle class="cls-1" cx="42.25" cy="42.25" r="42"/><path class="cls-2" d="M332.53,349.48l-.66,2.18c.77,0,1.54-.05,2.33-.06q-1.33,4.84-2.33,7.41h2.87a39.91,39.91,0,0,1,2-7.41l2.31.06.66-2.18Z" transform="translate(-317.75 -317.75)"/><path class="cls-2" d="M346.13,360.74c-.78,0-1.45-.57-2-1.73v0a9.08,9.08,0,0,1-.48-1.22,8.44,8.44,0,0,1-.25-1,17.66,17.66,0,0,1-.23-2.36c0-.3,0-.56,0-.76a12.49,12.49,0,0,1,.85-4.57h-3.56q-2,4.65-5,9.95h3.09c.18-.62.39-1.25.61-1.88h1.75a9.71,9.71,0,0,0,.8,3.49,2.94,2.94,0,0,0,2.73,1.93,3.53,3.53,0,0,0,3.24-2.29Q347.32,360.74,346.13,360.74Zm-5.29-5.54h-.93c.31-.71.65-1.43,1-2.14C340.88,353.82,340.85,354.54,340.84,355.2Z" transform="translate(-317.75 -317.75)"/><path class="cls-2" d="M351.56,353.17q1.44-.66,1.44-1.74a1.88,1.88,0,0,0-.74-1.61,2.86,2.86,0,0,0-1.75-.49,7.11,7.11,0,0,0-1,.08,8.53,8.53,0,0,1-1,.07H346a43.6,43.6,0,0,1-2.39,8.29c-.16.42-.33.83-.51,1.24h2.7a4,4,0,0,0,2.51.83,5.35,5.35,0,0,0,3.34-1,3.72,3.72,0,0,0,1.4-3.1C353.07,354.36,352.57,353.49,351.56,353.17Zm-2.4,3.22a1.28,1.28,0,0,1-1.08.5,2.19,2.19,0,0,1-1.12-.36l.6-2a2.07,2.07,0,0,1,.77-.18c.78,0,1.17.28,1.17.85A1.94,1.94,0,0,1,349.16,356.39Zm1.06-4a.89.89,0,0,1-.67.33h-1.42l.44-1.42a1.39,1.39,0,0,1,.92-.35,1.31,1.31,0,0,1,.67.17.6.6,0,0,1,.34.55A1.07,1.07,0,0,1,350.22,352.37Z" transform="translate(-317.75 -317.75)"/><path class="cls-2" d="M361.51,352.43a1.21,1.21,0,0,0,1-.47,1.6,1.6,0,0,0,.36-1c0-1.24-1-1.86-2.93-1.86-2.33,0-3.49.82-3.49,2.48a2.69,2.69,0,0,0,.71,1.84l1.33,1.19a1.92,1.92,0,0,1,.71,1.42c0,.8-.44,1.2-1.33,1.2s-1.36-.36-1.36-1.08a1.16,1.16,0,0,1,.82-1.13,2.72,2.72,0,0,0-1.59-.61,2,2,0,0,0-1.1.36,2.27,2.27,0,0,0-1.12,2.08,2.39,2.39,0,0,0,.28,1.13.94.94,0,0,0,.12.22,3.15,3.15,0,0,0,.58.67,2.61,2.61,0,0,0,.46.34,5.38,5.38,0,0,0,2.76.67,4.68,4.68,0,0,0,2.79-.93,3,3,0,0,0,1.41-2.47,3.22,3.22,0,0,0-.73-2.15l-1.36-1.21a1.83,1.83,0,0,1-.73-1.37c0-.72.32-1.07,1-1.07a.82.82,0,0,1,.5.17.52.52,0,0,1,.23.43,1.29,1.29,0,0,1-.45.8A2.44,2.44,0,0,0,361.51,352.43Z" transform="translate(-317.75 -317.75)"/><path class="cls-2" d="M366.35,351.6q1.57,0,3.72.06l.66-2.18H364q-.66,2.52-2.14,7.37c-.17.57-.42,1.29-.76,2.16h6.69l.64-2.16-3.69,0h-.34c.13-.55.27-1.11.42-1.65.8,0,1.65,0,2.55.07l.66-2.16c-.89,0-1.73.07-2.5.07h-.11c.19-.54.38-1.08.59-1.61Z" transform="translate(-317.75 -317.75)"/><path class="cls-2" d="M373.91,351.6q1.57,0,3.72.06l.65-2.18h-6.69q-.64,2.52-2.13,7.37c-.17.57-.43,1.29-.77,2.16h6.69l.65-2.16-3.7,0H372c.13-.55.27-1.11.43-1.65.79,0,1.64,0,2.55.07l.65-2.16c-.89,0-1.72.07-2.5.07H373c.18-.54.38-1.08.59-1.61Z" transform="translate(-317.75 -317.75)"/><path class="cls-2" d="M387,360.48a3.19,3.19,0,0,1-1.84-.75,8.94,8.94,0,0,1-2.09-3.33,3.56,3.56,0,0,0,2.15-1.35,3.69,3.69,0,0,0,.9-2.39,4.63,4.63,0,0,0-.31-1.6c-.41-1.05-1.42-1.58-3-1.58h-3.64a44,44,0,0,1-2.9,9.53h3.08l.81-2.67q1.59,4.14,2.55,5.1a2.89,2.89,0,0,0,2.16.84c.88,0,2-.65,3.28-1.95A2.88,2.88,0,0,1,387,360.48Zm-5.25-6.22a2.83,2.83,0,0,1-.93-.17l.78-2.54.51,0c.79,0,1.18.31,1.18.92a2,2,0,0,1-.39,1.26A1.35,1.35,0,0,1,381.76,354.26Z" transform="translate(-317.75 -317.75)"/><path class="cls-2" d="M354.21,365.47s-.18-.05-.43,0l-.18,0a13.26,13.26,0,0,0-2.42.81c-.39.16-.73.3-.76.3a2.61,2.61,0,0,1-.45-.9,1.1,1.1,0,0,1,.06-.84c.11-.23.38-.44.49-.37a.54.54,0,0,1,.05.29c0,.25.11.45.25.45s.29-.26.33-.48a.71.71,0,0,0-.76-.88.78.78,0,0,0-.21,0,1.68,1.68,0,0,0-.85.8,2.25,2.25,0,0,0,.2,1.89,2.51,2.51,0,0,1,.16.37,2.05,2.05,0,0,1-.45.36c-1.58,1.07-1.67,2.2-.2,2.54a1.77,1.77,0,0,0,1.81-.49,1.34,1.34,0,0,0,.26-1,1.86,1.86,0,0,0-.28-.92l-.24-.48.64-.31a13.74,13.74,0,0,1,2.34-.91h0C354.23,365.54,354.25,365.54,354.21,365.47Zm-3.95,3.69a1.06,1.06,0,0,1-.39.21,1.57,1.57,0,0,1-.86,0c-.74-.24-.79-.57-.19-1.22a5.82,5.82,0,0,1,.72-.61l.39-.25.09.12a2.82,2.82,0,0,1,.26.44C350.46,368.26,350.56,368.89,350.26,369.16Z" transform="translate(-317.75 -317.75)"/><path class="cls-2" d="M359.93,366c-.13.09-.28.2-.45.34-1.68,1.3-2,1.39-2.26.75a2.8,2.8,0,0,1-.11-1.73,6.85,6.85,0,0,0,.05-1.07c-.09-.42-.44-.55-.73-.27a14.34,14.34,0,0,0-1.59,2.49c-.28.54-.53,1-.54,1s0-5.95.09-7.19c0-.51.05-.95.08-1.44s.1-1.3.17-2.23a9.53,9.53,0,0,0,.06-1.19.32.32,0,0,0-.61,0,12.78,12.78,0,0,0-.32,2.56c0,.16,0,.32,0,.49-.14,1.95-.17,4.84-.13,7a1.55,1.55,0,0,0,0,.22,12.27,12.27,0,0,0,.24,2.95.21.21,0,0,0,.33,0c0-.05.08-.23.13-.4a20.07,20.07,0,0,1,1.37-2.75c.28-.42.77-1,.82-.91a3.88,3.88,0,0,1-.06.63,2.7,2.7,0,0,0,.46,2.42.88.88,0,0,0,1.09.21,12.57,12.57,0,0,0,1.92-1.52,3,3,0,0,0,.68-.71C360.59,365.5,360.48,365.55,359.93,366Z" transform="translate(-317.75 -317.75)"/><path class="cls-2" d="M364.78,365.71l-.1,0a6.8,6.8,0,0,1-1.62.54l-.32,0,0-.2a2.81,2.81,0,0,0-.07-1.37,1.2,1.2,0,0,0-1.14-.78,1.66,1.66,0,0,0-.72.18c-.37.18-.39.2-.59.6a3.21,3.21,0,0,0-.33,1.2,1.72,1.72,0,0,0,0,.32v.2a1.74,1.74,0,0,0,.83,1.65.81.81,0,0,0,.85,0,2.52,2.52,0,0,0,.82-1c.18-.39.22-.42.39-.45a7.68,7.68,0,0,0,1.88-.67,1.67,1.67,0,0,0,.48-.33.75.75,0,0,0,.1-.16A4.88,4.88,0,0,0,364.78,365.71Zm-2.58,1.19a2.26,2.26,0,0,1-.62.78.42.42,0,0,1-.6-.05,1.42,1.42,0,0,1-.32-1v-.35l.24.13a2.08,2.08,0,0,0,1.06.27h.34Zm.32-.78-.06.24h-.37a1.78,1.78,0,0,1-1.28-.42c-.1-.11-.1-.14,0-.38a3.29,3.29,0,0,1,.23-.6,1,1,0,0,0,.14-.45c0-.16.15-.26.4-.26l.27,0C362.5,364.46,362.79,365.23,362.52,366.12Z" transform="translate(-317.75 -317.75)"/><path class="cls-2" d="M371.87,365.43a24.14,24.14,0,0,0-2.54.67,4.14,4.14,0,0,1-.57.18,4,4,0,0,1,.15-.39c.29-.69.27-1.25-.05-1.57a1,1,0,0,0-1.13,0,4.28,4.28,0,0,0-1.26,1.18,10.08,10.08,0,0,0-1,2.11,5.42,5.42,0,0,1-.18.55s0-.91,0-2,0-2.07,0-2.13a.25.25,0,0,0-.49,0c-.06.18-.15,2.78-.2,6.07,0,.31,0,.6,0,.88h.62c0-.33,0-.59.05-.71.31-3,1.48-5.31,2.87-5.65a.32.32,0,0,1,.42.35,2.68,2.68,0,0,1-.51,1.26,1.77,1.77,0,0,1-.72.81c-.22.14-.49.34-.62.44a1.7,1.7,0,0,0-.56.8c0,.28.33.4.65.23A5.16,5.16,0,0,0,368,367.4a1.72,1.72,0,0,1,.76-.63c.41-.19,2.33-.92,2.95-1.12C372,365.53,372.11,365.43,371.87,365.43Z" transform="translate(-317.75 -317.75)"/><circle class="cls-3" cx="42.25" cy="42.25" r="42"/><circle class="cls-4" cx="42.25" cy="42.25" r="32"/></svg>