<?xml version="1.0" encoding="UTF-8"?>
<svg id="Layer_1" data-name="Layer 1" xmlns="http://www.w3.org/2000/svg" version="1.1" xmlns:xodm="http://www.corel.com/coreldraw/odm/2003" viewBox="0 0 162.9 191.3">
  <defs>
    <style>
      .cls-1 {
        fill: #133e87;
      }

      .cls-1, .cls-2, .cls-3 {
        stroke-width: 0px;
      }

      .cls-1, .cls-4, .cls-3 {
        fill-rule: evenodd;
      }

      .cls-5, .cls-6, .cls-7 {
        fill: none;
      }

      .cls-5, .cls-6, .cls-7, .cls-4 {
        stroke: #909090;
        stroke-linecap: round;
        stroke-linejoin: round;
      }

      .cls-5, .cls-4 {
        stroke-width: 1px;
      }

      .cls-2, .cls-3 {
        fill: #909090;
      }

      .cls-6 {
        stroke-width: 2px;
      }

      .cls-7 {
        stroke-width: .8px;
      }

      .cls-4 {
        fill: #fefefe;
      }
    </style>
  </defs>
  <g id="Layer_1-2" data-name="Layer_1">
    <g id="_1220355059616" data-name=" 1220355059616">
      <polygon class="cls-1" points="108.2 48.8 127.7 48.8 140.8 166.3 108.2 48.8"/>
      <path class="cls-6" d="M141.5,165.7H11.9l13.4-116.8h18.5s5.4-29.2,33.2-29.2,31.6,29.1,31.6,29.1h19s13.9,116.8,13.9,116.8Z"/>
      <path class="cls-6" d="M54.4,48.7h44.2s-3.4-19.1-22.3-19.1-21.9,19.1-21.9,19.1h0Z"/>
      <polygon class="cls-4" points="3.6 164.4 10.8 161.7 13.2 154.1 15.8 161.6 25 163 15.8 166.5 14.4 175.5 11.9 165.7 3.6 164.4"/>
      <ellipse class="cls-5" cx="9.4" cy="95.3" rx="4.7" ry="4.9"/>
      <ellipse class="cls-6" cx="145.4" cy="127.4" rx="3.3" ry="3.7"/>
      <path class="cls-7" d="M2.6,100.7v.9s2.3,1.1,2.3,1.1v.8M4.9,100.6v1.1s-2.2.8-2.2.8v.9"/>
      <path class="cls-6" d="M147.3,79.7s.7,1.4,3,1.4c2.3,0,5.3,1.1,5.9,2.8.6,1.6-4.1,2.6-6.2,2.5-2.1,0,10.4,6.2,10.4,6.2"/>
      <path class="cls-6" d="M141.8,64.5l6.3,6.2M148.1,64.5l-6.3,6.2"/>
      <ellipse class="cls-2" cx="55.7" cy="87.8" rx="7" ry="7.6"/>
      <ellipse class="cls-2" cx="97.3" cy="87.8" rx="7" ry="7.6"/>
      <path class="cls-3" d="M47.3,135.5c.7-30.6,56.3-33.1,58.5-.3,0,0-7.3-18.1-29.5-18.1s-29.1,18.3-29.1,18.3h0Z"/>
    </g>
  </g>
</svg>