<svg id="Layer_1" data-name="Layer 1" xmlns="http://www.w3.org/2000/svg" viewBox="0 0 193 193"><defs><style>.cls-1{fill:#184182;}.cls-2{fill:none;stroke:#184182;stroke-miterlimit:10;}</style></defs><path class="cls-1" d="M53.83,146.42h85.63a17.88,17.88,0,0,0,17.85-17.86V111.2a12.73,12.73,0,0,0,0-22.43V71.44a17.88,17.88,0,0,0-17.85-17.86H53.83A17.88,17.88,0,0,0,36,71.44v57.12A17.88,17.88,0,0,0,53.83,146.42Zm98.91-52a5.73,5.73,0,0,1,4.14,5.57,5.91,5.91,0,0,1-4.52,5.7,3.74,3.74,0,0,1-1.48.23H135.17a5.93,5.93,0,1,1,0-11.86h15.71A4.6,4.6,0,0,1,152.74,94.43Zm-109.62-23A10.72,10.72,0,0,1,53.83,60.72h85.63a10.73,10.73,0,0,1,10.71,10.72V86.93h-15a13.07,13.07,0,1,0,0,26.14h15v15.49a10.73,10.73,0,0,1-10.71,10.72H53.83a10.72,10.72,0,0,1-10.71-10.72Z" transform="translate(-3.5 -3.5)"/><circle class="cls-2" cx="96.5" cy="96.5" r="96"/></svg>